<svg xmlns="http://www.w3.org/2000/svg" viewBox="0 0 64 64" role="img" aria-labelledby="title desc">
  <title id="title">CRUD Users Dashboard</title>
  <desc id="desc">Minimal admin dashboard icon with user and authentication elements.</desc>
  <defs>
    <linearGradient id="bg" x1="10" y1="6" x2="54" y2="58" gradientUnits="userSpaceOnUse">
      <stop stop-color="#0f172a"/>
      <stop offset="1" stop-color="#1d4ed8"/>
    </linearGradient>
    <linearGradient id="panel" x1="18" y1="16" x2="48" y2="50" gradientUnits="userSpaceOnUse">
      <stop stop-color="#38bdf8"/>
      <stop offset="1" stop-color="#60a5fa"/>
    </linearGradient>
  </defs>
  <rect width="64" height="64" rx="16" fill="url(#bg)"/>
  <rect x="13" y="14" width="38" height="36" rx="8" fill="#020617" stroke="#38bdf8" stroke-width="2"/>
  <rect x="18" y="20" width="13" height="4" rx="2" fill="url(#panel)"/>
  <rect x="35" y="20" width="10" height="4" rx="2" fill="#334155"/>
  <circle cx="27" cy="34" r="6" fill="#e0f2fe"/>
  <path d="M17 47c1.8-6 6-9 10-9s8.2 3 10 9" fill="#38bdf8"/>
  <rect x="39" y="34" width="12" height="12" rx="3" fill="#0f172a" stroke="#93c5fd" stroke-width="2"/>
  <path d="M42 34v-3.5a3 3 0 0 1 6 0V34" fill="none" stroke="#93c5fd" stroke-width="2" stroke-linecap="round"/>
  <circle cx="45" cy="40" r="1.5" fill="#93c5fd"/>
</svg>
